<?xml version="1.0" encoding="UTF-8"?>
<svg version="1.1" xmlns="http://www.w3.org/2000/svg" width="4088" height="4088">
<path d="M0 0 C5.8571403 0.00688651 11.71425334 -0.00055765 17.57139114 -0.00743115 C29.67477411 -0.0211337 41.77811904 -0.02082916 53.88150533 -0.01258852 C66.127598 -0.00430181 78.37366569 -0.00262001 90.61975988 -0.00880052 C91.78487109 -0.0093818 91.78487109 -0.0093818 92.97351989 -0.00997482 C96.13765193 -0.01157484 99.30178394 -0.01322099 102.46591593 -0.01492565 C131.86089034 -0.03075072 161.25584804 -0.0318888 190.65082487 -0.02348329 C218.9723095 -0.01538876 247.29378623 -0.01222163 275.61527189 -0.01604463 C277.39703846 -0.01627707 279.17880503 -0.01650854 280.96057161 -0.01673904 C288.12150666 -0.01767052 295.28244172 -0.01862652 302.44337677 -0.01961833 C322.4587363 -0.02236879 342.47409585 -0.02408101 362.48945554 -0.02497675 C363.40076002 -0.02501768 364.3120645 -0.02505862 365.25098427 -0.0251008 C394.27086983 -0.02632787 423.29075299 -0.02295192 452.31063779 -0.01642801 C453.25129087 -0.01621726 454.19194395 -0.01600652 455.16110167 -0.01578938 C470.43482056 -0.01235491 485.70853939 -0.00869635 500.98225822 -0.00501886 C561.55224262 0.00954913 622.12220713 0.00887295 682.69219144 -0.00571062 C697.95837337 -0.00937446 713.2245553 -0.01300772 728.49073728 -0.01642801 C729.43084704 -0.01663936 730.3709568 -0.0168507 731.33955473 -0.01706845 C760.33034331 -0.02354106 789.32113025 -0.02627906 818.31191953 -0.02497675 C819.67786099 -0.02491562 819.67786099 -0.02491562 821.07139723 -0.02485325 C841.06485681 -0.02391565 861.05831621 -0.02201439 881.05177561 -0.01924524 C888.2061477 -0.0182579 895.36051979 -0.01731864 902.51489188 -0.01639311 C904.29456587 -0.01616094 906.07423985 -0.01592475 907.85391384 -0.01568452 C936.16233895 -0.01187374 964.47075538 -0.01614014 992.77917935 -0.02423495 C1022.09274903 -0.03252552 1051.4062987 -0.02943358 1080.71986552 -0.01364106 C1083.87378206 -0.01198415 1087.02769862 -0.01037402 1090.1816152 -0.00880052 C1090.95559248 -0.0084099 1091.72956976 -0.00801928 1092.5270009 -0.00761683 C1104.73498486 -0.00172175 1116.94294376 -0.00579569 1129.15092545 -0.01410754 C1141.18264068 -0.02208375 1153.21431403 -0.01918479 1165.246024 -0.00506528 C1171.67012971 0.00203992 1178.09414144 0.00457648 1184.51824405 -0.00628323 C1209.48363071 -0.04543365 1234.12658478 -0.02686707 1258.90068754 3.38540266 C1260.5044575 3.59643466 1262.10822872 3.80745705 1263.71200164 4.01846658 C1267.16492154 4.49258224 1270.59234901 5.03697581 1274.02568754 5.63540266 C1275.86393095 5.95227034 1275.86393095 5.95227034 1277.73931058 6.27553938 C1315.69130064 13.05815817 1353.62358146 25.34350536 1387.80596098 43.29311751 C1390.15319055 44.51706915 1392.51459858 45.71103611 1394.87725004 46.90493391 C1423.74082253 61.60202505 1451.14837716 80.31388892 1474.90068754 102.38540266 C1476.29245791 103.59841354 1477.68814418 104.80694983 1479.08818754 106.01040266 C1482.29330525 108.79633999 1485.28095388 111.74032374 1488.25225004 114.77212141 C1490.06276055 116.59359741 1490.06276055 116.59359741 1492.90068754 118.82290266 C1495.99109106 121.46262234 1498.49683577 124.27176831 1501.12334379 127.35805891 C1502.76949264 129.23575398 1504.4780387 130.96667964 1506.27568754 132.69790266 C1510.00712301 136.3711643 1513.25243411 140.37722639 1516.52959379 144.45571516 C1518.8559085 147.33007436 1521.24847748 150.13688862 1523.65068754 152.94790266 C1539.06964907 171.4506565 1551.84231465 191.90853141 1563.5266641 212.91616438 C1564.38272904 214.4545867 1565.24327707 215.99053357 1566.11064848 217.52260969 C1584.71636792 250.43359391 1596.83353917 287.57168843 1604.90068754 324.38540266 C1605.20909574 325.79233382 1605.20909574 325.79233382 1605.52373441 327.22768782 C1611.10159598 353.27179397 1613.04190707 379.37958924 1613.07427152 405.95083235 C1613.08058887 408.20625049 1613.08735595 410.4616674 1613.09453519 412.71708296 C1613.10912864 417.55191156 1613.12088438 422.38673561 1613.13048299 427.22157667 C1613.14604935 434.89178787 1613.17000056 442.56195921 1613.19538053 450.23214339 C1613.23041875 461.00864728 1613.263514 471.7851532 1613.2935098 482.56167219 C1613.2954103 483.24374834 1613.29731079 483.92582449 1613.29926887 484.62856962 C1613.32603223 494.28197724 1613.34993189 503.93538983 1613.37265387 513.58880772 C1613.37504982 514.6064645 1613.37504982 514.6064645 1613.37749418 515.64468001 C1613.37908764 516.32227136 1613.38068111 516.99986272 1613.38232286 517.69798715 C1613.40926832 529.07328767 1613.44384868 540.44854605 1613.48414793 551.82380794 C1613.51065541 559.42180042 1613.52872193 567.01974802 1613.54018518 574.61777733 C1613.54942697 579.38160482 1613.56684078 584.14537856 1613.58636411 588.90917395 C1613.59372544 591.08810882 1613.59791359 593.26705759 1613.59835943 595.44600485 C1613.60263702 607.03075372 1613.92466813 618.53633373 1614.78290495 630.09200667 C1614.85864002 631.13169403 1614.9343751 632.17138139 1615.01240518 633.24257444 C1618.18975078 672.37441255 1633.60403155 711.26292307 1658.90068754 741.38540266 C1659.38956449 741.9728929 1659.87844144 742.56038313 1660.38213285 743.1656761 C1668.34394398 752.71485773 1676.38063386 761.34579486 1686.10771879 769.14321516 C1687.81131971 770.51086122 1689.500456 771.89712221 1691.16240629 773.31509016 C1717.03726765 795.08068035 1750.65842345 809.10212035 1783.90068754 814.38540266 C1784.92685166 814.55223497 1785.95301578 814.71906727 1787.01027578 814.8909551 C1799.52025339 816.69746539 1811.92762094 816.66574125 1824.54739984 816.64152907 C1827.04257627 816.64411272 1829.53775193 816.64757194 1832.03292608 816.65182261 C1837.45581891 816.65906262 1842.87865854 816.66015721 1848.30155344 816.65576629 C1856.42007144 816.64923571 1864.53855449 816.65434487 1872.65707035 816.66166586 C1886.49711738 816.67381813 1900.33715197 816.67660515 1914.1772035 816.67427252 C1928.19815094 816.6719531 1942.21908768 816.67402183 1956.24003347 816.68143271 C1957.56968892 816.68213225 1957.56968892 816.68213225 1958.92620609 816.68284593 C1963.44646284 816.68524631 1967.96671954 816.687722 1972.48697623 816.69022763 C2004.18721955 816.70767778 2035.8874601 816.71665345 2067.58770776 816.72055718 C2100.99684803 816.72467273 2134.40598131 816.73355315 2167.81511816 816.74946211 C2169.32586013 816.75017985 2169.32586013 816.75017985 2170.86712214 816.7509121 C2182.12153622 816.75627142 2193.37595023 816.76178793 2204.63036421 816.76736872 C2225.4466887 816.77768535 2246.26301351 816.78734001 2267.07933839 816.79683302 C2268.12086676 816.79730892 2269.16239513 816.79778481 2270.23548497 816.79827512 C2319.80105048 816.82088962 2369.36661759 816.83746867 2418.93218587 816.85265667 C2422.22061543 816.85366464 2425.50904498 816.85467561 2428.79747454 816.85568727 C2461.81104547 816.86583708 2494.82461649 816.87565194 2527.83818754 816.88540266 C2561.91906994 816.89546951 2595.99995232 816.90563284 2630.0808346 816.91612999 C2633.36442788 816.91714068 2636.64802117 816.91814836 2639.93161445 816.91915572 C2689.41992884 816.93435904 2738.90824175 816.95136522 2788.39655336 816.9739723 C2789.43754406 816.97444693 2790.47853475 816.97492155 2791.55107062 816.97541056 C2812.35323065 816.98490333 2833.15539054 816.99465743 2853.95755019 817.00496577 C2865.20882971 817.01053924 2876.46010928 817.01600126 2887.71138891 817.02134321 C2888.71792476 817.02182219 2889.72446062 817.02230117 2890.76149756 817.02279466 C2924.13913723 817.03860589 2957.51677383 817.0465023 2990.89441681 817.05061835 C3022.52132062 817.05455694 3054.148217 817.06460616 3085.77511635 817.08209055 C3090.29258538 817.08458387 3094.81005445 817.0870018 3099.32752355 817.08937262 C3100.21299693 817.08983947 3101.09847031 817.09030633 3102.01077621 817.09078733 C3115.98139227 817.09796439 3129.95200015 817.09846352 3143.92261751 817.09610094 C3157.68986221 817.09390701 3171.45708936 817.0988643 3185.22432885 817.11120692 C3192.57631915 817.11760288 3199.92827663 817.12094568 3207.28026827 817.11503903 C3253.25501649 817.08082138 3297.87608781 817.9364283 3342.90068754 828.38540266 C3343.80996 828.59358626 3344.71923246 828.80176985 3345.65605863 829.01626204 C3372.31153843 835.22520734 3398.19855169 844.65824842 3422.90068754 856.38540266 C3423.91598539 856.86622298 3424.93128324 857.34704329 3425.97734769 857.84243391 C3444.42597265 866.6554528 3462.13872689 876.65414395 3478.90068754 888.38540266 C3479.55182523 888.83963606 3480.20296293 889.29386946 3480.87383207 889.76186751 C3495.83618007 900.24398356 3509.99535821 911.54915133 3523.34990629 924.01821516 C3525.45262616 925.96959073 3527.5868348 927.84544203 3529.77568754 929.69790266 C3538.7973137 937.52799329 3547.21107254 946.25398485 3554.90068754 955.38540266 C3555.76693754 956.3741136 3556.63318754 957.36282454 3557.52568754 958.38149641 C3607.85910317 1015.9173642 3640.84032813 1087.37815141 3652.71318754 1162.82290266 C3652.90799711 1164.05194319 3653.10280668 1165.28098372 3653.30351957 1166.5472679 C3653.89216192 1170.4870226 3654.40436082 1174.43328349 3654.90068754 1178.38540266 C3655.03300105 1179.3981269 3655.03300105 1179.3981269 3655.16798755 1180.43131022 C3657.61497713 1199.89045577 3657.18484782 1219.49146941 3657.15807606 1239.06364409 C3657.15305026 1244.38139412 3657.15974652 1249.69913245 3657.16487973 1255.01688061 C3657.17230174 1264.35834774 3657.1723351 1273.69979204 3657.16749024 1283.04126052 C3657.16027313 1297.02591458 3657.16462089 1311.01054904 3657.17117159 1324.99520259 C3657.18199685 1348.83245644 3657.18334455 1372.66970237 3657.17947324 1396.50695799 C3657.1755792 1420.66030324 3657.17603767 1444.81364265 3657.18178304 1468.96698759 C3657.18196229 1469.72939448 3657.18214155 1470.49180136 3657.18232623 1471.27731149 C3657.18396914 1478.26455091 3657.18565474 1485.25179032 3657.18739186 1492.23902971 C3657.19174086 1509.75891311 3657.19537646 1527.27879663 3657.1985242 1544.79868029 C3657.19866865 1545.60143289 3657.1988131 1546.4041855 3657.19896193 1547.23126394 C3657.20600954 1586.78600556 3657.20537213 1626.34074665 3657.20384344 1665.89548872 C3657.20379383 1667.18121827 3657.20379383 1667.18121827 3657.20374322 1668.49292216 C3657.2036089 1671.96314062 3657.20347375 1675.43335908 3657.20333784 1678.90357753 C3657.20296266 1688.48986098 3657.20260499 1698.07614443 3657.20227011 1707.66242789 C3657.2022394 1708.52795565 3657.20220868 1709.39348342 3657.20217703 1710.28523931 C3657.20080246 1749.53255537 3657.20333422 1788.77987081 3657.20679618 1828.02718671 C3657.20725941 1833.27902884 3657.20771128 1838.53087097 3657.2081603 1843.78271309 C3657.20823458 1844.65087267 3657.20830886 1845.51903225 3657.20838539 1846.4134997 C3657.20853554 1848.16860369 3657.20868566 1849.92370768 3657.20883575 1851.67881167 C3657.20921183 1856.07354246 3657.20958929 1860.46827324 3657.20996684 1864.86300403 C3657.21004164 1865.73435957 3657.21011644 1866.60571512 3657.21019351 1867.50347537 C3657.21057199 1871.9098368 3657.21095191 1876.31619822 3657.21133446 1880.72255965 C3657.21490247 1921.84412933 3657.21776687 1962.96569903 3657.21992715 2004.08726881 C3657.21997439 2004.98321601 3657.22002163 2005.8791632 3657.2200703 2006.80226032 C3657.22306471 2063.88736708 3657.2229403 2120.97247337 3657.22050638 2178.05758015 C3657.22038679 2180.8642136 3657.22026841 2183.67084706 3657.22015029 2186.47748052 C3657.21927888 2207.13643583 3657.21834828 2227.79539115 3657.21739966 2248.45434646 C3657.21731327 2250.33838642 3657.2172269 2252.22242637 3657.21714054 2254.10646632 C3657.2170541 2255.99127425 3657.21696766 2257.87608219 3657.21688121 2259.76089012 C3657.21683842 2260.6941423 3657.21679563 2261.62739448 3657.21675154 2262.58892704 C3657.21653515 2267.30445648 3657.21631771 2272.01998592 3657.21609831 2276.73551537 C3657.21195984 2365.79748236 3657.21088182 2454.85944698 3657.22325834 2543.9214134 C3657.22338862 2544.85904445 3657.2235189 2545.7966755 3657.22365313 2546.76271962 C3657.22760506 2575.11623598 3657.23196462 2603.46975227 3657.23642429 2631.82326856 C3657.24130045 2662.82746227 3657.24613443 2693.83165599 3657.25070604 2724.83584975 C3657.25084281 2725.76149069 3657.25097958 2726.68713163 3657.2511205 2727.6408223 C3657.25967685 2785.62361202 3657.26457903 2843.60640107 3657.2654136 2901.58919142 C3657.26543351 2902.93274531 3657.26543351 2902.93274531 3657.26545382 2904.3034417 C3657.26602918 2943.64281115 3657.26574429 2982.98218055 3657.26453511 3022.32154998 C3657.26407591 3037.27252269 3657.26368367 3052.22349541 3657.26332435 3067.17446812 C3657.26324008 3070.67432969 3657.26315081 3074.17419125 3657.26305753 3077.67405281 C3657.26200241 3117.79396046 3657.26307732 3157.91386637 3657.27073248 3198.03377341 C3657.27089713 3198.89843886 3657.27106177 3199.76310432 3657.2712314 3200.65397176 C3657.27388954 3214.56227844 3657.27670868 3228.47058508 3657.27953543 3242.37889173 C3657.28755312 3281.87710836 3657.29389555 3321.37532243 3657.28946658 3360.87353991 C3657.28937718 3361.67560699 3657.28928778 3362.47767407 3657.28919567 3363.30404622 C3657.28721179 3380.80587099 3657.28437609 3398.30769553 3657.28070515 3415.80952002 C3657.27925302 3422.79054974 3657.27790876 3429.77157949 3657.27659734 3436.75260924 C3657.27645128 3437.51410127 3657.27630521 3438.2755933 3657.27615471 3439.06016085 C3657.27157922 3463.1772493 3657.27618029 3487.29432414 3657.28613193 3511.41141065 C3657.29616884 3535.83407282 3657.29578144 3560.256712 3657.28283131 3584.67937325 C3657.27578863 3598.56174504 3657.27689331 3612.44405762 3657.29017969 3626.32642517 C3657.2981897 3635.55737204 3657.29523272 3644.78827428 3657.28353006 3654.01921708 C3657.27720683 3659.2447249 3657.27536147 3664.47011612 3657.28709726 3669.69561726 C3657.37234921 3710.47697951 3653.87784278 3749.8945816 3642.90068754 3789.38540266 C3642.64061918 3790.32512923 3642.38055082 3791.26485579 3642.1126016 3792.23305891 C3624.72095682 3854.13624499 3591.25393002 3916.57941512 3544.64287504 3961.64321516 C3542.86731558 3963.41877462 3541.2646191 3965.27508468 3539.65068754 3967.19790266 C3535.31590419 3972.23216241 3530.36305418 3976.58514289 3525.4251016 3981.0094261 C3523.99510642 3982.30017768 3522.58388934 3983.61164741 3521.17412504 3984.92446516 C3514.61220156 3991.02182769 3507.74277915 3996.58438904 3500.64726957 4002.03725813 C3498.97128627 4003.33090921 3497.30752341 4004.63867573 3495.64678129 4005.95180891 C3483.69279554 4015.35756371 3470.97443984 4023.62099099 3457.90068754 4031.38540266 C3457.17204496 4031.82078352 3456.44340238 4032.25616438 3455.69267973 4032.7047386 C3433.40386197 4045.95435405 3410.28959993 4056.60618157 3385.90068754 4065.38540266 C3384.54064603 4065.87798567 3384.54064603 4065.87798567 3383.15312894 4066.38051985 C3352.79423373 4077.25992922 3320.94718131 4084.01103565 3288.90068754 4087.38540266 C3288.05440545 4087.4747402 3287.20812336 4087.56407774 3286.33619636 4087.65612247 C3275.23526102 4088.66219291 3264.13095963 4088.524611 3252.99421778 4088.51305316 C3250.64820391 4088.51429697 3248.30219024 4088.51597832 3245.95617696 4088.51805552 C3240.17094633 4088.52203823 3234.38572916 4088.52138282 3228.60049806 4088.5187886 C3221.59795743 4088.51591887 3214.59542224 4088.5189313 3207.59288218 4088.52209192 C3194.45052794 4088.52785416 3181.30817712 4088.52886648 3168.16582188 4088.52732219 C3154.77491937 4088.52576776 3141.38401958 4088.52640298 3127.99311735 4088.5296634 C3126.71950272 4088.52997134 3126.71950272 4088.52997134 3125.42015851 4088.53028551 C3121.08486242 4088.53134304 3116.74956634 4088.53243452 3112.41427027 4088.53353696 C3080.74422803 4088.54151182 3049.0741868 4088.54450725 3017.40414365 4088.54498289 C2985.29872457 4088.54547735 2953.19330675 4088.54812199 2921.08788808 4088.55339049 C2919.0414014 4088.55372403 2916.99491471 4088.55405749 2914.94842803 4088.55439089 C2906.69704586 4088.555739 2898.4456637 4088.5571023 2890.19428154 4088.558483 C2799.42346327 4088.5736501 2708.65264532 4088.58042591 2617.88182598 4088.58490496 C2616.73365327 4088.58496165 2615.58548055 4088.58501834 2614.40251473 4088.58507675 C2608.59479867 4088.58536327 2602.78708262 4088.5856483 2596.97936657 4088.58593087 C2548.32044108 4088.58830603 2499.66151572 4088.59201571 2451.00259034 4088.59596796 C2427.69973965 4088.59786055 2404.39688896 4088.59968905 2381.09403827 4088.60150216 C2379.9350819 4088.60159235 2378.77612553 4088.60168254 2377.58204927 4088.60177547 C2321.80268739 4088.60611172 2266.0233255 4088.61004004 2210.24396356 4088.61350249 C2209.05408899 4088.61357636 2207.86421441 4088.61365023 2206.63828303 4088.61372634 C2130.80745737 4088.61842136 2054.97663176 4088.62124435 1979.14580597 4088.62288927 C1972.92857842 4088.62302484 1966.71135087 4088.62316387 1960.49412332 4088.62330281 C1950.52639932 4088.62352528 1940.55867532 4088.62374665 1930.59095132 4088.62396669 C1928.73819534 4088.62400759 1928.73819534 4088.62400759 1926.84800994 4088.62404932 C1924.35163105 4088.62410444 1921.85525216 4088.62415955 1919.35887327 4088.62421466 C1901.84748824 4088.62460127 1884.33610321 4088.62498921 1866.82471818 4088.62538379 C1860.55878294 4088.62552489 1854.2928477 4088.62566497 1848.02691246 4088.62580268 C1729.68798207 4088.62840681 1611.349053 4088.63373635 1493.01012357 4088.64968489 C1491.14154791 4088.64993658 1491.14154791 4088.64993658 1489.23522325 4088.65019335 C1450.31357134 4088.65544405 1411.39191947 4088.6610184 1372.47026762 4088.66665266 C1332.53375214 4088.67243367 1292.59723667 4088.67816423 1252.66072115 4088.68360899 C1251.43104349 4088.6837768 1250.20136584 4088.68394461 1248.93442522 4088.6841175 C1171.91724853 4088.6946112 1094.90007219 4088.70147243 1017.88289484 4088.70447539 C1016.69329898 4088.7045222 1015.50370312 4088.70456901 1014.2780589 4088.70461724 C962.03266661 4088.70666794 909.78727433 4088.70791199 857.54188201 4088.7082633 C836.52307688 4088.70840656 815.50427175 4088.70864522 794.48546662 4088.70892735 C791.00045821 4088.70897288 787.5154498 4088.70901454 784.0304414 4088.70905546 C730.73047904 4088.70970148 677.43051819 4088.71265765 624.13055667 4088.72251604 C622.98133576 4088.72272841 621.83211486 4088.72294079 620.64806909 4088.72315959 C602.16171787 4088.72658832 583.67536669 4088.73020131 565.18901551 4088.733836 C512.70080432 4088.74415092 460.21259498 4088.75293024 407.7243826 4088.75099133 C406.65900771 4088.75095259 405.59363282 4088.75091385 404.49597384 4088.75087394 C381.25100111 4088.7499973 358.00602853 4088.7482851 334.76105592 4088.74575431 C325.48980564 4088.74475758 316.21855534 4088.74387092 306.94730505 4088.74301909 C305.93597835 4088.7429232 304.92465164 4088.74282731 303.88267868 4088.74272852 C271.82661195 4088.73974143 239.77055593 4088.74596584 207.71449139 4088.75753795 C176.13851987 4088.76889825 144.56256267 4088.77112436 112.98659055 4088.76013245 C108.65636796 4088.75862641 104.32614534 4088.75722509 99.9959227 4088.75588663 C99.14823638 4088.75562058 98.30055005 4088.75535454 97.42717626 4088.75508043 C84.09272371 4088.75116781 70.75829576 4088.75723049 57.42384747 4088.76762648 C44.35856939 4088.77760683 31.29332812 4088.77683921 18.22805142 4088.76477553 C11.28034246 4088.7586483 4.33271448 4088.75707716 -2.61498838 4088.76946039 C-101.72345139 4088.93002232 -193.7325926 4065.38444067 -295.47431246 3984.79946516 C-297.57134494 3982.87094423 -299.695929 3981.00258964 -301.85321871 3979.14321516 C-306.42812289 3975.15183921 -310.74687264 3970.92945775 -315.03681246 3966.63540266 C-316.22476412 3965.44733015 -316.22476412 3965.44733015 -317.43671481 3964.23525618 C-322.35351579 3959.27033073 -326.94446428 3954.24093228 -331.24774996 3948.73305891 C-333.0281759 3946.47559902 -334.90088572 3944.37320286 -336.84931246 3942.26040266 C-346.53172509 3931.47639817 -355.13243233 3919.47635334 -363.09931246 3907.38540266 C-363.7693027 3906.37002424 -363.7693027 3906.37002424 -364.45282809 3905.33413313 C-407.96541035 3838.9318129 -431.53108877 3761.76269324 -431.35116146 3682.38038252 C-431.35327499 3680.02485336 -431.35626378 3677.66932486 -431.36003681 3675.31379778 C-431.36703382 3669.53999455 -431.36485509 3663.76624719 -431.35870085 3657.99244423 C-431.35179111 3650.99643008 -431.35674541 3644.00043552 -431.361936 3637.00442166 C-431.37133931 3623.87709418 -431.37130586 3610.74978197 -431.36611517 3597.62245284 C-431.36086954 3584.25561388 -431.36004692 3570.88878518 -431.36447209 3557.52194582 C-431.36475037 3556.67297872 -431.36502866 3555.82401161 -431.36531537 3554.94931824 C-431.36675549 3550.6142447 -431.36826456 3546.27917119 -431.36979652 3541.94409768 C-431.38082135 3510.31210898 -431.3819666 3478.6801258 -431.37809817 3447.04813574 C-431.37420619 3414.99003508 -431.37465933 3382.93193883 -431.38040797 3350.87383841 C-431.38058722 3349.86248478 -431.38076647 3348.85113115 -431.38095115 3347.80913044 C-431.38259403 3338.54058224 -431.38427963 3329.27203405 -431.38601678 3320.00348587 C-431.39036614 3296.76203718 -431.39400161 3273.52058839 -431.39714912 3250.2791395 C-431.39729357 3249.21415321 -431.39743803 3248.14916691 -431.39758685 3247.0519083 C-431.40463684 3194.55802139 -431.40399679 3142.06413489 -431.40246836 3089.57024763 C-431.40243529 3088.43250843 -431.40240222 3087.29476922 -431.40236814 3086.12255306 C-431.40223383 3081.51639193 -431.40209868 3076.91023079 -431.40196276 3072.30406965 C-431.40158759 3059.58014942 -431.40122992 3046.85622918 -431.40089504 3034.13230894 C-431.40086432 3032.98351599 -431.4008336 3031.83472303 -431.40080196 3030.65111816 C-431.39942781 2978.57538699 -431.40195839 2926.49965628 -431.4054211 2874.42392523 C-431.40588434 2867.45699485 -431.4063362 2860.49006448 -431.40678523 2853.5231341 C-431.40685951 2852.37146536 -431.40693379 2851.21979663 -431.40701032 2850.03322883 C-431.40716047 2847.70497892 -431.40731059 2845.376729 -431.40746067 2843.04847909 C-431.40783675 2837.21865103 -431.40821421 2831.38882296 -431.40859176 2825.5589949 C-431.40866656 2824.40310527 -431.40874137 2823.24721563 -431.40881843 2822.05629904 C-431.40919691 2816.21111753 -431.40957683 2810.36593603 -431.40995938 2804.52075452 C-431.4135275 2749.97043402 -431.41639185 2695.4201135 -431.41855208 2640.86979292 C-431.41859932 2639.68123252 -431.41864656 2638.49267211 -431.41869523 2637.26809472 C-431.42168993 2561.53193558 -431.42156498 2485.79577679 -431.4191313 2410.05961764 C-431.41901171 2406.33560738 -431.41889333 2402.61159712 -431.41877521 2398.88758687 C-431.41790379 2371.47555031 -431.41697319 2344.06351376 -431.41602458 2316.6514772 C-431.4159382 2314.15153804 -431.41585182 2311.65159888 -431.41576546 2309.15165973 C-431.41567902 2306.65069877 -431.41559258 2304.14973781 -431.41550613 2301.64877686 C-431.41546334 2300.41043906 -431.41542055 2299.17210126 -431.41537647 2297.89623808 C-431.41516008 2291.63917967 -431.41494263 2285.38212126 -431.41472323 2279.12506285 C-431.41058458 2160.94322633 -431.40950728 2042.76139159 -431.42188326 1924.57955549 C-431.42201355 1923.33530189 -431.42214383 1922.09104829 -431.42227806 1920.80909003 C-431.42622997 1883.18360017 -431.43058953 1845.55811036 -431.43504922 1807.93262055 C-431.43992531 1766.79030453 -431.44475924 1725.6479885 -431.44933096 1684.50567244 C-431.44946773 1683.27738542 -431.4496045 1682.0490984 -431.44974542 1680.78359057 C-431.45830053 1603.85417953 -431.46320383 1526.92476901 -431.46403853 1449.9953575 C-431.4640518 1448.80713761 -431.46406507 1447.61891773 -431.46407875 1446.39469118 C-431.46465408 1394.21016024 -431.46436927 1342.02562933 -431.46316003 1289.8410984 C-431.46270083 1270.0088185 -431.46230858 1250.1765386 -431.46194927 1230.3442587 C-431.46186501 1225.70165443 -431.46177574 1221.05905017 -431.46168245 1216.41644591 C-431.46062704 1163.18199682 -431.46170518 1109.94754904 -431.46935741 1056.71310042 C-431.46952205 1055.56534855 -431.4696867 1054.41759668 -431.46985633 1053.23506445 C-431.47251456 1034.77255329 -431.47533367 1016.31004216 -431.47816035 997.84753102 C-431.48617592 945.42843724 -431.49252252 893.00934537 -431.48809151 840.59025095 C-431.48800211 839.52629367 -431.4879127 838.4623364 -431.48782059 837.36613799 C-431.48583693 814.15225242 -431.48300141 790.93836703 -431.47933007 767.72448167 C-431.47787789 758.46571293 -431.47653365 749.20694417 -431.47522227 739.94817541 C-431.4750762 738.93821271 -431.47493013 737.92825001 -431.47477964 736.88768238 C-431.47020042 704.8751047 -431.474812 672.86253727 -431.48475686 640.84996106 C-431.49451305 609.31706074 -431.49512286 577.78417524 -431.48250156 546.25127547 C-431.48077191 541.92696665 -431.47914657 537.60265779 -431.47758371 533.27834891 C-431.4772737 532.43182133 -431.4769637 531.58529375 -431.4766443 530.71311382 C-431.47203952 517.39705548 -431.47739927 504.08102122 -431.48708567 490.7649664 C-431.49637036 477.71771741 -431.49490908 464.67050582 -431.48215498 451.62325937 C-431.47566029 444.6851923 -431.47371812 437.74720598 -431.48572219 430.80914401 C-431.59778246 359.318928 -421.84912766 289.56645908 -388.18280856 225.46694563 C-386.98228024 223.16056789 -385.81597157 220.83838546 -384.65009371 218.51430891 C-370.49080844 190.54820804 -352.41111078 163.73417272 -331.15399996 140.62368391 C-329.21828643 138.51500739 -327.3411127 136.36753938 -325.47431246 134.19790266 C-322.68837513 130.99278495 -319.74439138 128.00513632 -316.71259371 125.03384016 C-314.89111771 123.22332965 -314.89111771 123.22332965 -312.66181246 120.38540266 C-310.02209278 117.29499914 -307.21294682 114.78925443 -304.12665621 112.16274641 C-302.24896114 110.51659756 -300.51803548 108.8080515 -298.78681246 107.01040266 C-295.11355082 103.27896719 -291.10748873 100.03365609 -287.02899996 96.75649641 C-284.15464076 94.4301817 -281.3478265 92.03761272 -278.53681246 89.63540266 C-260.03405863 74.21644113 -239.57618371 61.44377555 -218.56855074 49.7594261 C-217.03012843 48.90336116 -215.49418156 48.04281313 -213.96210543 47.17544173 C-148.36580282 10.09157955 -74.1494166 -0.12534677 0 0 Z " fill="#696969" transform="translate(431.09931246191263,-0.38540266267955303)"/>
<path d="M0 0 C0.99 0 1.98 0 3 0 C3.21039166 5.68131547 2.41686532 10.77439908 1.27166271 16.32880974 C-0.29611986 24.24627233 -1.75129212 32.17271083 -3.0823698 40.13345528 C-3.35050655 41.73641836 -3.35050655 41.73641836 -3.6240602 43.37176453 C-4.2000834 46.82722053 -4.77336028 50.283126 -5.34660339 53.73904419 C-5.7698629 56.27944304 -6.19333906 58.8198058 -6.61701089 61.36013591 C-7.53148416 66.84539067 -8.44418031 72.33093868 -9.35565567 77.81669235 C-10.71098653 85.97373776 -12.06917734 94.13030522 -13.42794134 102.28677936 C-15.71460278 116.01372333 -17.99907347 129.74103101 -20.2823391 143.46854019 C-23.39872387 162.20476673 -26.5183316 180.94045564 -29.63878325 199.67600523 C-31.09449586 208.41629722 -32.55005178 217.1566153 -34.0055666 225.89694023 C-34.15122453 226.77161089 -34.29688247 227.64628155 -34.44695428 228.54745738 C-37.90772201 249.32946783 -41.36695399 270.11173386 -44.82592773 290.89404297 C-44.97713938 291.80255381 -45.12835104 292.71106465 -45.28414486 293.64710612 C-47.58532122 307.47306109 -49.88641755 321.29902939 -52.1875 335.125 C-54.64668016 349.90088696 -57.10589442 364.67676823 -59.56518555 379.45263672 C-59.71677008 380.3633877 -59.86835462 381.27413868 -60.02453262 382.21248817 C-63.48387829 402.99689538 -66.94366015 423.78122985 -70.40481281 444.56533623 C-70.5501556 445.43811595 -70.69549839 446.31089567 -70.84524551 447.21012327 C-72.29591984 455.92132388 -73.74667048 464.63251177 -75.19753529 473.34368066 C-78.31570944 492.0656827 -81.43253882 510.78790721 -84.54666184 529.51058355 C-86.81404776 543.14239798 -89.08308619 556.77393643 -91.35387012 570.40518524 C-92.70387552 578.50947294 -94.05249138 586.61398914 -95.39917119 594.71883014 C-96.40255313 600.75666925 -97.40844218 606.79408776 -98.41533462 612.83134256 C-98.82389154 615.28350337 -99.23161073 617.73580392 -99.6384398 620.18825199 C-100.1884491 623.50310577 -100.74140798 626.81745391 -101.29515362 630.13168526 C-101.45502645 631.09966083 -101.61489928 632.0676364 -101.77961674 633.06494457 C-101.92704769 633.94355704 -102.07447864 634.82216952 -102.22637719 635.72740662 C-102.35260644 636.48592128 -102.47883569 637.24443594 -102.60889007 638.0259359 C-103 640 -103 640 -104 643 C55.06 643 214.12 643 378 643 C376.94486796 647.22052818 375.87693264 648.68120959 373.125 651.9375 C372.31289062 652.90558594 371.50078125 653.87367188 370.6640625 654.87109375 C369.77651865 655.91446843 368.88848638 656.95742782 368 658 C367.09075005 659.07388376 366.18190005 660.14810629 365.2734375 661.22265625 C363.87979973 662.87024251 362.48542069 664.51716385 361.08837891 666.16186523 C358.18859047 669.57864279 355.32913647 673.02420377 352.5 676.5 C348.75212202 681.1045358 344.93016556 685.64019191 341.0859375 690.1640625 C338.18755177 693.5805954 335.328449 697.02504838 332.5 700.5 C328.75212202 705.1045358 324.93016556 709.64019191 321.0859375 714.1640625 C318.18755177 717.5805954 315.328449 721.02504838 312.5 724.5 C308.75212202 729.1045358 304.93016556 733.64019191 301.0859375 738.1640625 C298.18755177 741.5805954 295.328449 745.02504838 292.5 748.5 C288.75212202 753.1045358 284.93016556 757.64019191 281.0859375 762.1640625 C278.18755177 765.5805954 275.328449 769.02504838 272.5 772.5 C268.75212202 777.1045358 264.93016556 781.64019191 261.0859375 786.1640625 C258.18755177 789.5805954 255.328449 793.02504838 252.5 796.5 C248.75212202 801.1045358 244.93016556 805.64019191 241.0859375 810.1640625 C238.18755177 813.5805954 235.328449 817.02504838 232.5 820.5 C228.75212202 825.1045358 224.93016556 829.64019191 221.0859375 834.1640625 C218.18755177 837.5805954 215.328449 841.02504838 212.5 844.5 C208.75212202 849.1045358 204.93016556 853.64019191 201.0859375 858.1640625 C198.18755177 861.5805954 195.328449 865.02504838 192.5 868.5 C188.75212202 873.1045358 184.93016556 877.64019191 181.0859375 882.1640625 C178.18755177 885.5805954 175.328449 889.02504838 172.5 892.5 C168.75212202 897.1045358 164.93016556 901.64019191 161.0859375 906.1640625 C158.18755177 909.5805954 155.328449 913.02504838 152.5 916.5 C148.75212202 921.1045358 144.93016556 925.64019191 141.0859375 930.1640625 C138.18755177 933.5805954 135.328449 937.02504838 132.5 940.5 C128.75212202 945.1045358 124.93016556 949.64019191 121.0859375 954.1640625 C118.18755177 957.5805954 115.328449 961.02504838 112.5 964.5 C108.75212202 969.1045358 104.93016556 973.64019191 101.0859375 978.1640625 C98.18755177 981.5805954 95.328449 985.02504838 92.5 988.5 C88.75212202 993.1045358 84.93016556 997.64019191 81.0859375 1002.1640625 C78.18755177 1005.5805954 75.328449 1009.02504838 72.5 1012.5 C68.75212202 1017.1045358 64.93016556 1021.64019191 61.0859375 1026.1640625 C58.18755177 1029.5805954 55.328449 1033.02504838 52.5 1036.5 C48.75212202 1041.1045358 44.93016556 1045.64019191 41.0859375 1050.1640625 C38.18755177 1053.5805954 35.328449 1057.02504838 32.5 1060.5 C28.75212202 1065.1045358 24.93016556 1069.64019191 21.0859375 1074.1640625 C18.18755177 1077.5805954 15.328449 1081.02504838 12.5 1084.5 C8.75212202 1089.1045358 4.93016556 1093.64019191 1.0859375 1098.1640625 C-1.81244823 1101.5805954 -4.671551 1105.02504838 -7.5 1108.5 C-11.24787798 1113.1045358 -15.06983444 1117.64019191 -18.9140625 1122.1640625 C-21.81244823 1125.5805954 -24.671551 1129.02504838 -27.5 1132.5 C-31.24787798 1137.1045358 -35.06983444 1141.64019191 -38.9140625 1146.1640625 C-41.81244823 1149.5805954 -44.671551 1153.02504838 -47.5 1156.5 C-51.24787798 1161.1045358 -55.06983444 1165.64019191 -58.9140625 1170.1640625 C-61.81244823 1173.5805954 -64.671551 1177.02504838 -67.5 1180.5 C-71.24787798 1185.1045358 -75.06983444 1189.64019191 -78.9140625 1194.1640625 C-81.81244823 1197.5805954 -84.671551 1201.02504838 -87.5 1204.5 C-91.24787798 1209.1045358 -95.06983444 1213.64019191 -98.9140625 1218.1640625 C-101.81244823 1221.5805954 -104.671551 1225.02504838 -107.5 1228.5 C-111.24787798 1233.1045358 -115.06983444 1237.64019191 -118.9140625 1242.1640625 C-121.81244823 1245.5805954 -124.671551 1249.02504838 -127.5 1252.5 C-131.24787798 1257.1045358 -135.06983444 1261.64019191 -138.9140625 1266.1640625 C-141.81244823 1269.5805954 -144.671551 1273.02504838 -147.5 1276.5 C-151.24787798 1281.1045358 -155.06983444 1285.64019191 -158.9140625 1290.1640625 C-161.81244823 1293.5805954 -164.671551 1297.02504838 -167.5 1300.5 C-171.24787798 1305.1045358 -175.06983444 1309.64019191 -178.9140625 1314.1640625 C-181.81244823 1317.5805954 -184.671551 1321.02504838 -187.5 1324.5 C-191.24787798 1329.1045358 -195.06983444 1333.64019191 -198.9140625 1338.1640625 C-201.81244823 1341.5805954 -204.671551 1345.02504838 -207.5 1348.5 C-211.24787798 1353.1045358 -215.06983444 1357.64019191 -218.9140625 1362.1640625 C-221.81244823 1365.5805954 -224.671551 1369.02504838 -227.5 1372.5 C-231.24787798 1377.1045358 -235.06983444 1381.64019191 -238.9140625 1386.1640625 C-241.81244823 1389.5805954 -244.671551 1393.02504838 -247.5 1396.5 C-251.24787798 1401.1045358 -255.06983444 1405.64019191 -258.9140625 1410.1640625 C-261.81244823 1413.5805954 -264.671551 1417.02504838 -267.5 1420.5 C-271.24787798 1425.1045358 -275.06983444 1429.64019191 -278.9140625 1434.1640625 C-281.81244823 1437.5805954 -284.671551 1441.02504838 -287.5 1444.5 C-291.24787798 1449.1045358 -295.06983444 1453.64019191 -298.9140625 1458.1640625 C-301.81244823 1461.5805954 -304.671551 1465.02504838 -307.5 1468.5 C-311.24787798 1473.1045358 -315.06983444 1477.64019191 -318.9140625 1482.1640625 C-321.81244823 1485.5805954 -324.671551 1489.02504838 -327.5 1492.5 C-331.24787798 1497.1045358 -335.06983444 1501.64019191 -338.9140625 1506.1640625 C-341.81244823 1509.5805954 -344.671551 1513.02504838 -347.5 1516.5 C-351.24787798 1521.1045358 -355.06983444 1525.64019191 -358.9140625 1530.1640625 C-361.81244823 1533.5805954 -364.671551 1537.02504838 -367.5 1540.5 C-371.24787798 1545.1045358 -375.06983444 1549.64019191 -378.9140625 1554.1640625 C-381.81244823 1557.5805954 -384.671551 1561.02504838 -387.5 1564.5 C-391.24787798 1569.1045358 -395.06983444 1573.64019191 -398.9140625 1578.1640625 C-402.55201592 1582.45237631 -406.11521191 1586.79776049 -409.6640625 1591.16015625 C-412.82719112 1595.00563202 -416.04907139 1598.80007455 -419.28320312 1602.5859375 C-421.1673585 1604.79837177 -422.98707628 1606.98117095 -424.6328125 1609.37890625 C-425.08398438 1609.91386719 -425.53515625 1610.44882813 -426 1611 C-426.99 1611 -427.98 1611 -429 1611 C-426.84052216 1595.30037787 -424.3491594 1579.66973983 -421.73568726 1564.03990173 C-421.30875063 1561.47553596 -420.88202656 1558.91113478 -420.45549452 1556.34670168 C-419.53397635 1550.80837334 -418.61068527 1545.27034295 -417.68617439 1539.73251343 C-416.31146871 1531.49797451 -414.93958283 1523.2629675 -413.56822695 1515.02787015 C-411.11863257 1500.31842322 -408.66630034 1485.60943376 -406.21280829 1470.90063651 C-404.06742121 1458.03887 -401.9230135 1445.17694066 -399.77956009 1432.31485176 C-399.63711771 1431.46011348 -399.49467534 1430.6053752 -399.34791653 1429.72473577 C-398.76966027 1426.25484592 -398.19140915 1422.78495521 -397.61316538 1419.31506329 C-392.19723533 1386.81552432 -386.77860648 1354.31643585 -381.35866144 1321.81756624 C-376.54280101 1292.94079887 -371.72898648 1264.06369117 -366.91699219 1235.1862793 C-366.60759126 1233.32952731 -366.29819028 1231.47277533 -365.98878925 1229.61602335 C-365.75934549 1228.23910433 -365.75934549 1228.23910433 -365.52526651 1226.83436875 C-364.75527995 1222.21359587 -363.98528857 1217.59282379 -363.21529198 1212.97205257 C-363.0633838 1212.06044646 -362.91147563 1211.14884035 -362.75496418 1210.20960981 C-358.73198641 1186.06775653 -354.70747563 1161.92615881 -350.68247187 1137.78464323 C-350.24964393 1135.18858262 -349.81681621 1132.59252197 -349.383989 1129.99646123 C-349.09687186 1128.27435949 -348.8097535 1126.55225794 -348.52263391 1124.8301566 C-346.51976257 1112.81715259 -344.51748305 1100.80405007 -342.51560546 1088.79088043 C-339.93822053 1073.3241315 -337.35978496 1057.85755835 -334.77947329 1042.39129739 C-333.41447366 1034.2093663 -332.0503651 1026.02728782 -330.6875301 1017.84499588 C-329.67187644 1011.74775945 -328.65453751 1005.65080538 -327.63652046 999.55396313 C-327.22351206 997.07885655 -326.81105751 994.60365747 -326.39919381 992.12836014 C-325.84203528 988.78034548 -325.28290753 985.43266566 -324.72325706 982.0850668 C-324.56149404 981.11009216 -324.39973102 980.13511753 -324.23306608 979.13059822 C-324.0093852 977.7964078 -324.0093852 977.7964078 -323.78118551 976.43526405 C-323.65348467 975.6694183 -323.52578384 974.90357255 -323.39421328 974.11451935 C-323.01108195 972.05944242 -322.50701728 970.02806911 -322 968 C-481.06 968 -640.12 968 -804 968 C-802.88813872 963.55255487 -800.94368095 961.263426 -798 957.9375 C-796.98879161 956.77021664 -795.97838584 955.60223754 -794.96875 954.43359375 C-794.46472656 953.85335449 -793.96070313 953.27311523 -793.44140625 952.67529297 C-791.41516386 950.32026667 -789.45619665 947.9133513 -787.5 945.5 C-783.75212202 940.8954642 -779.93016556 936.35980809 -776.0859375 931.8359375 C-773.18755177 928.4194046 -770.328449 924.97495162 -767.5 921.5 C-763.75212202 916.8954642 -759.93016556 912.35980809 -756.0859375 907.8359375 C-753.18755177 904.4194046 -750.328449 900.97495162 -747.5 897.5 C-743.75212202 892.8954642 -739.93016556 888.35980809 -736.0859375 883.8359375 C-733.18755177 880.4194046 -730.328449 876.97495162 -727.5 873.5 C-723.75212202 868.8954642 -719.93016556 864.35980809 -716.0859375 859.8359375 C-713.18755177 856.4194046 -710.328449 852.97495162 -707.5 849.5 C-703.75212202 844.8954642 -699.93016556 840.35980809 -696.0859375 835.8359375 C-693.18755177 832.4194046 -690.328449 828.97495162 -687.5 825.5 C-683.75212202 820.8954642 -679.93016556 816.35980809 -676.0859375 811.8359375 C-673.18755177 808.4194046 -670.328449 804.97495162 -667.5 801.5 C-663.75212202 796.8954642 -659.93016556 792.35980809 -656.0859375 787.8359375 C-653.18755177 784.4194046 -650.328449 780.97495162 -647.5 777.5 C-643.75212202 772.8954642 -639.93016556 768.35980809 -636.0859375 763.8359375 C-633.18755177 760.4194046 -630.328449 756.97495162 -627.5 753.5 C-623.75212202 748.8954642 -619.93016556 744.35980809 -616.0859375 739.8359375 C-613.18755177 736.4194046 -610.328449 732.97495162 -607.5 729.5 C-603.75212202 724.8954642 -599.93016556 720.35980809 -596.0859375 715.8359375 C-593.18755177 712.4194046 -590.328449 708.97495162 -587.5 705.5 C-583.75212202 700.8954642 -579.93016556 696.35980809 -576.0859375 691.8359375 C-573.18755177 688.4194046 -570.328449 684.97495162 -567.5 681.5 C-563.75212202 676.8954642 -559.93016556 672.35980809 -556.0859375 667.8359375 C-553.18755177 664.4194046 -550.328449 660.97495162 -547.5 657.5 C-543.75212202 652.8954642 -539.93016556 648.35980809 -536.0859375 643.8359375 C-533.18755177 640.4194046 -530.328449 636.97495162 -527.5 633.5 C-523.75212202 628.8954642 -519.93016556 624.35980809 -516.0859375 619.8359375 C-513.18755177 616.4194046 -510.328449 612.97495162 -507.5 609.5 C-503.75212202 604.8954642 -499.93016556 600.35980809 -496.0859375 595.8359375 C-493.18755177 592.4194046 -490.328449 588.97495162 -487.5 585.5 C-483.75212202 580.8954642 -479.93016556 576.35980809 -476.0859375 571.8359375 C-473.18755177 568.4194046 -470.328449 564.97495162 -467.5 561.5 C-463.75212202 556.8954642 -459.93016556 552.35980809 -456.0859375 547.8359375 C-453.18755177 544.4194046 -450.328449 540.97495162 -447.5 537.5 C-443.75212202 532.8954642 -439.93016556 528.35980809 -436.0859375 523.8359375 C-433.18755177 520.4194046 -430.328449 516.97495162 -427.5 513.5 C-423.75212202 508.8954642 -419.93016556 504.35980809 -416.0859375 499.8359375 C-413.18755177 496.4194046 -410.328449 492.97495162 -407.5 489.5 C-403.75212202 484.8954642 -399.93016556 480.35980809 -396.0859375 475.8359375 C-393.18755177 472.4194046 -390.328449 468.97495162 -387.5 465.5 C-383.75212202 460.8954642 -379.93016556 456.35980809 -376.0859375 451.8359375 C-373.18755177 448.4194046 -370.328449 444.97495162 -367.5 441.5 C-363.75212202 436.8954642 -359.93016556 432.35980809 -356.0859375 427.8359375 C-353.18755177 424.4194046 -350.328449 420.97495162 -347.5 417.5 C-343.75212202 412.8954642 -339.93016556 408.35980809 -336.0859375 403.8359375 C-333.18755177 400.4194046 -330.328449 396.97495162 -327.5 393.5 C-323.75212202 388.8954642 -319.93016556 384.35980809 -316.0859375 379.8359375 C-313.18755177 376.4194046 -310.328449 372.97495162 -307.5 369.5 C-303.75212202 364.8954642 -299.93016556 360.35980809 -296.0859375 355.8359375 C-293.18755177 352.4194046 -290.328449 348.97495162 -287.5 345.5 C-283.75212202 340.8954642 -279.93016556 336.35980809 -276.0859375 331.8359375 C-273.18755177 328.4194046 -270.328449 324.97495162 -267.5 321.5 C-263.75212202 316.8954642 -259.93016556 312.35980809 -256.0859375 307.8359375 C-253.18755177 304.4194046 -250.328449 300.97495162 -247.5 297.5 C-243.75212202 292.8954642 -239.93016556 288.35980809 -236.0859375 283.8359375 C-233.18755177 280.4194046 -230.328449 276.97495162 -227.5 273.5 C-223.75212202 268.8954642 -219.93016556 264.35980809 -216.0859375 259.8359375 C-213.18755177 256.4194046 -210.328449 252.97495162 -207.5 249.5 C-203.75212202 244.8954642 -199.93016556 240.35980809 -196.0859375 235.8359375 C-193.18755177 232.4194046 -190.328449 228.97495162 -187.5 225.5 C-183.75212202 220.8954642 -179.93016556 216.35980809 -176.0859375 211.8359375 C-173.18755177 208.4194046 -170.328449 204.97495162 -167.5 201.5 C-163.75212202 196.8954642 -159.93016556 192.35980809 -156.0859375 187.8359375 C-153.18755177 184.4194046 -150.328449 180.97495162 -147.5 177.5 C-143.75212202 172.8954642 -139.93016556 168.35980809 -136.0859375 163.8359375 C-133.18755177 160.4194046 -130.328449 156.97495162 -127.5 153.5 C-123.75212202 148.8954642 -119.93016556 144.35980809 -116.0859375 139.8359375 C-113.18755177 136.4194046 -110.328449 132.97495162 -107.5 129.5 C-103.75212202 124.8954642 -99.93016556 120.35980809 -96.0859375 115.8359375 C-93.18755177 112.4194046 -90.328449 108.97495162 -87.5 105.5 C-83.75212202 100.8954642 -79.93016556 96.35980809 -76.0859375 91.8359375 C-73.18755177 88.4194046 -70.328449 84.97495162 -67.5 81.5 C-63.75212202 76.8954642 -59.93016556 72.35980809 -56.0859375 67.8359375 C-53.18755177 64.4194046 -50.328449 60.97495162 -47.5 57.5 C-43.75212202 52.8954642 -39.93016556 48.35980809 -36.0859375 43.8359375 C-33.18755177 40.4194046 -30.328449 36.97495162 -27.5 33.5 C-24.21176205 29.46016481 -20.87266822 25.46918267 -17.5 21.5 C-9.10166901 11.87482195 -9.10166901 11.87482195 -1.4375 1.69140625 C-0.7259375 0.85416016 -0.7259375 0.85416016 0 0 Z " fill="#ECECEC" transform="translate(2257,1239)"/>
</svg>
