<svg width="97%" height="97%" viewBox="0 0 97 97" fill="none" xmlns="http://www.w3.org/2000/svg"><path fill-rule="evenodd" clip-rule="evenodd" d="M28.1862 85.4326L25.2596 90.5017L23.7388 89.6237L26.6654 84.5546L28.1862 85.4326Z" fill="black"></path><path fill-rule="evenodd" clip-rule="evenodd" d="M73.2596 7.3684L70.333 12.4374L68.8122 11.5594L71.7388 6.49038L73.2596 7.3684Z" fill="black"></path><path fill-rule="evenodd" clip-rule="evenodd" d="M12.4384 70.3335L7.36931 73.2602L6.4913 71.7394L11.5603 68.8128L12.4384 70.3335Z" fill="black"></path><path fill-rule="evenodd" clip-rule="evenodd" d="M6.35323 49.3717H0.5L0.5 47.6156H6.35323V49.3717Z" fill="black"></path><path fill-rule="evenodd" clip-rule="evenodd" d="M96.5 49.3717H90.6468V47.6156H96.5V49.3717Z" fill="black"></path><path fill-rule="evenodd" clip-rule="evenodd" d="M11.5603 28.1871L6.4913 25.2605L7.36931 23.7397L12.4384 26.6664L11.5603 28.1871Z" fill="black"></path><path fill-rule="evenodd" clip-rule="evenodd" d="M89.6246 73.2605L84.5555 70.3339L85.4336 68.8131L90.5026 71.7397L89.6246 73.2605Z" fill="black"></path><path fill-rule="evenodd" clip-rule="evenodd" d="M26.6664 12.4388L23.7397 7.36977L25.2605 6.49175L28.1871 11.5608L26.6664 12.4388Z" fill="black"></path><path fill-rule="evenodd" clip-rule="evenodd" d="M71.7397 90.5031L68.8131 85.434L70.3339 84.556L73.2605 89.625L71.7397 90.5031Z" fill="black"></path><path fill-rule="evenodd" clip-rule="evenodd" d="M47.6143 6.35323V0.5H49.3703V6.35323H47.6143Z" fill="black"></path><path fill-rule="evenodd" clip-rule="evenodd" d="M47.6143 96.5V90.6468H49.3703V96.5H47.6143Z" fill="black"></path><path fill-rule="evenodd" clip-rule="evenodd" d="M44.1393 92.7668L43.7723 96.2589L43.1902 96.1977L43.5572 92.7056L44.1393 92.7668Z" fill="black"></path><path fill-rule="evenodd" clip-rule="evenodd" d="M53.8054 0.789717L53.4383 4.28179L52.8562 4.2206L53.2232 0.728532L53.8054 0.789717Z" fill="black"></path><path fill-rule="evenodd" clip-rule="evenodd" d="M39.5374 92.076L38.8074 95.5105L38.2348 95.3888L38.9649 91.9543L39.5374 92.076Z" fill="black"></path><path fill-rule="evenodd" clip-rule="evenodd" d="M58.7652 1.61002L58.0352 5.0446L57.4627 4.9229L58.1927 1.48832L58.7652 1.61002Z" fill="black"></path><path fill-rule="evenodd" clip-rule="evenodd" d="M35.0375 90.8997L33.9525 94.2392L33.3958 94.0583L34.4809 90.7188L35.0375 90.8997Z" fill="black"></path><path fill-rule="evenodd" clip-rule="evenodd" d="M63.6122 2.94147L62.5272 6.28092L61.9705 6.10004L63.0555 2.76059L63.6122 2.94147Z" fill="black"></path><path fill-rule="evenodd" clip-rule="evenodd" d="M30.6672 89.2599L29.239 92.4676L28.7042 92.2296L30.1324 89.0218L30.6672 89.2599Z" fill="black"></path><path fill-rule="evenodd" clip-rule="evenodd" d="M68.2891 4.77334L66.8609 7.98108L66.3262 7.743L67.7544 4.53526L68.2891 4.77334Z" fill="black"></path><path fill-rule="evenodd" clip-rule="evenodd" d="M22.585 84.6625L20.5211 87.5032L20.0475 87.1592L22.1114 84.3185L22.585 84.6625Z" fill="black"></path><path fill-rule="evenodd" clip-rule="evenodd" d="M76.9466 9.84199L74.8827 12.6827L74.4091 12.3386L76.473 9.49794L76.9466 9.84199Z" fill="black"></path><path fill-rule="evenodd" clip-rule="evenodd" d="M18.9538 81.7581L16.6043 84.3675L16.1693 83.9758L18.5189 81.3664L18.9538 81.7581Z" fill="black"></path><path fill-rule="evenodd" clip-rule="evenodd" d="M80.8386 13.0277L78.489 15.6371L78.054 15.2454L80.4036 12.636L80.8386 13.0277Z" fill="black"></path><path fill-rule="evenodd" clip-rule="evenodd" d="M15.6339 78.4803L13.0245 80.8299L12.6328 80.3949L15.2422 78.0453L15.6339 78.4803Z" fill="black"></path><path fill-rule="evenodd" clip-rule="evenodd" d="M84.3643 16.5956L81.7549 18.9451L81.3632 18.5102L83.9726 16.1606L84.3643 16.5956Z" fill="black"></path><path fill-rule="evenodd" clip-rule="evenodd" d="M12.6804 74.8809L9.8397 76.9447L9.49565 76.4712L12.3364 74.4073L12.6804 74.8809Z" fill="black"></path><path fill-rule="evenodd" clip-rule="evenodd" d="M87.5009 20.5192L84.6602 22.5831L84.3162 22.1096L87.1569 20.0457L87.5009 20.5192Z" fill="black"></path><path fill-rule="evenodd" clip-rule="evenodd" d="M7.97055 66.8596L4.76281 68.2877L4.52473 67.753L7.73247 66.3248L7.97055 66.8596Z" fill="black"></path><path fill-rule="evenodd" clip-rule="evenodd" d="M92.4571 29.2376L89.2494 30.6658L89.0113 30.1311L92.219 28.7029L92.4571 29.2376Z" fill="black"></path><path fill-rule="evenodd" clip-rule="evenodd" d="M6.28092 62.5186L2.94147 63.6036L2.76059 63.047L6.10004 61.9619L6.28092 62.5186Z" fill="black"></path><path fill-rule="evenodd" clip-rule="evenodd" d="M94.2392 33.9374L90.8997 35.0224L90.7188 34.4657L94.0583 33.3807L94.2392 33.9374Z" fill="black"></path><path fill-rule="evenodd" clip-rule="evenodd" d="M5.04551 58.027L1.61094 58.757L1.48924 58.1845L4.92381 57.4544L5.04551 58.027Z" fill="black"></path><path fill-rule="evenodd" clip-rule="evenodd" d="M95.5114 38.7991L92.0769 39.5292L91.9552 38.9566L95.3897 38.2266L95.5114 38.7991Z" fill="black"></path><path fill-rule="evenodd" clip-rule="evenodd" d="M4.28591 53.4424L0.793839 53.8095L0.732654 53.2273L4.22472 52.8603L4.28591 53.4424Z" fill="black"></path><path fill-rule="evenodd" clip-rule="evenodd" d="M96.263 43.7764L92.7709 44.1435L92.7097 43.5613L96.2018 43.1943L96.263 43.7764Z" fill="black"></path><path fill-rule="evenodd" clip-rule="evenodd" d="M4.22472 44.1462L0.732654 43.7792L0.793839 43.197L4.28591 43.5641L4.22472 44.1462Z" fill="black"></path><path fill-rule="evenodd" clip-rule="evenodd" d="M96.2018 53.8122L92.7097 53.4452L92.7709 52.8631L96.263 53.2301L96.2018 53.8122Z" fill="black"></path><path fill-rule="evenodd" clip-rule="evenodd" d="M4.9229 39.5383L1.48832 38.8083L1.61002 38.2357L5.0446 38.9658L4.9229 39.5383Z" fill="black"></path><path fill-rule="evenodd" clip-rule="evenodd" d="M95.3888 58.7662L91.9543 58.0361L92.076 57.4636L95.5105 58.1936L95.3888 58.7662Z" fill="black"></path><path fill-rule="evenodd" clip-rule="evenodd" d="M6.09912 35.0316L2.75967 33.9465L2.94056 33.3898L6.28 34.4749L6.09912 35.0316Z" fill="black"></path><path fill-rule="evenodd" clip-rule="evenodd" d="M94.0574 63.6063L90.7179 62.5212L90.8988 61.9646L94.2383 63.0496L94.0574 63.6063Z" fill="black"></path><path fill-rule="evenodd" clip-rule="evenodd" d="M7.73247 30.6685L4.52473 29.2404L4.76281 28.7056L7.97055 30.1338L7.73247 30.6685Z" fill="black"></path><path fill-rule="evenodd" clip-rule="evenodd" d="M92.219 68.2905L89.0113 66.8623L89.2494 66.3276L92.4571 67.7558L92.219 68.2905Z" fill="black"></path><path fill-rule="evenodd" clip-rule="evenodd" d="M12.3364 22.5863L9.49565 20.5224L9.8397 20.0489L12.6804 22.1128L12.3364 22.5863Z" fill="black"></path><path fill-rule="evenodd" clip-rule="evenodd" d="M87.1569 76.948L84.3162 74.8841L84.6602 74.4105L87.5009 76.4744L87.1569 76.948Z" fill="black"></path><path fill-rule="evenodd" clip-rule="evenodd" d="M15.2413 18.9474L12.6319 16.5979L13.0236 16.1629L15.633 18.5124L15.2413 18.9474Z" fill="black"></path><path fill-rule="evenodd" clip-rule="evenodd" d="M83.9717 80.8322L81.3623 78.4826L81.754 78.0476L84.3634 80.3972L83.9717 80.8322Z" fill="black"></path><path fill-rule="evenodd" clip-rule="evenodd" d="M18.5189 15.6343L16.1693 13.0249L16.6043 12.6333L18.9538 15.2427L18.5189 15.6343Z" fill="black"></path><path fill-rule="evenodd" clip-rule="evenodd" d="M80.4036 84.3582L78.054 81.7488L78.489 81.3572L80.8386 83.9666L80.4036 84.3582Z" fill="black"></path><path fill-rule="evenodd" clip-rule="evenodd" d="M22.1114 12.6822L20.0475 9.84153L20.5211 9.49748L22.585 12.3382L22.1114 12.6822Z" fill="black"></path><path fill-rule="evenodd" clip-rule="evenodd" d="M76.473 87.5028L74.4091 84.6621L74.8827 84.318L76.9466 87.1587L76.473 87.5028Z" fill="black"></path><path fill-rule="evenodd" clip-rule="evenodd" d="M30.1324 7.97146L28.7042 4.76373L29.239 4.52565L30.6672 7.73338L30.1324 7.97146Z" fill="black"></path><path fill-rule="evenodd" clip-rule="evenodd" d="M67.7544 92.458L66.3262 89.2503L66.8609 89.0122L68.2891 92.2199L67.7544 92.458Z" fill="black"></path><path fill-rule="evenodd" clip-rule="evenodd" d="M34.4818 6.27451L33.3967 2.93506L33.9534 2.75418L35.0385 6.09363L34.4818 6.27451Z" fill="black"></path><path fill-rule="evenodd" clip-rule="evenodd" d="M63.0565 94.2327L61.9714 90.8933L62.5281 90.7124L63.6132 94.0519L63.0565 94.2327Z" fill="black"></path><path fill-rule="evenodd" clip-rule="evenodd" d="M38.9649 5.0391L38.2348 1.60453L38.8074 1.48283L39.5374 4.9174L38.9649 5.0391Z" fill="black"></path><path fill-rule="evenodd" clip-rule="evenodd" d="M58.1927 95.505L57.4627 92.0705L58.0352 91.9488L58.7653 95.3833L58.1927 95.505Z" fill="black"></path><path fill-rule="evenodd" clip-rule="evenodd" d="M43.5636 4.28728L43.1966 0.795213L43.7787 0.734028L44.1457 4.2261L43.5636 4.28728Z" fill="black"></path><path fill-rule="evenodd" clip-rule="evenodd" d="M53.2296 96.2644L52.8626 92.7723L53.4447 92.7111L53.8118 96.2032L53.2296 96.2644Z" fill="black"></path><path fill-rule="evenodd" clip-rule="evenodd" d="M90.842 25.2348L88.0013 27.2987L87.6572 26.8252L90.4979 24.7613L90.842 25.2348Z" fill="black"></path></svg>